# Blender v2.80 (sub 41) OBJ File: 'smg.blend'
# www.blender.org
mtllib bullet.mtl
o Bullet_Circle.030
v -0.080300 0.026090 0.308791
v -0.049628 0.068307 0.308791
v 0.049628 0.068307 0.308791
v 0.080300 0.026090 0.308791
v 0.049628 -0.068309 0.308791
v 0.000000 -0.084434 0.308791
v -0.080300 -0.026092 0.308791
v 0.000000 0.084432 0.308791
v 0.080300 -0.026092 0.308791
v -0.049628 -0.068309 0.308791
v -0.098715 -0.032075 0.172081
v 0.061009 -0.083974 0.172081
v 0.061009 0.083972 0.172081
v -0.098715 0.032073 0.172081
v -0.061010 -0.083974 0.172081
v 0.000000 -0.103797 0.172081
v 0.098715 -0.032075 0.172081
v 0.098715 0.032073 0.172081
v 0.000000 0.103795 0.172081
v -0.061010 0.083972 0.172081
v -0.025908 -0.035661 0.377941
v 0.041921 -0.013621 0.377941
v 0.000000 0.044076 0.377941
v -0.041921 -0.013621 0.377941
v 0.000000 -0.044078 0.377941
v 0.025909 -0.035661 0.377941
v 0.041921 0.013619 0.377941
v 0.025909 0.035659 0.377941
v -0.025908 0.035659 0.377941
v -0.041921 0.013619 0.377941
v 0.000000 -0.000001 0.398208
v -0.099863 -0.032449 -0.191267
v 0.061719 -0.084950 -0.191267
v 0.061719 0.084949 -0.191267
v -0.099863 0.032447 -0.191267
v 0.000000 -0.105002 -0.191267
v -0.061719 -0.084950 -0.191267
v 0.099863 0.032447 -0.191267
v 0.099863 -0.032449 -0.191267
v -0.061719 0.084949 -0.191267
v 0.000000 0.105000 -0.191267
v 0.061719 0.084949 -0.251288
v 0.099863 0.032447 -0.251288
v 0.099863 -0.032449 -0.251288
v 0.061719 -0.084950 -0.251288
v 0.000000 -0.105002 -0.251288
v -0.061719 -0.084950 -0.251288
v -0.099863 -0.032449 -0.251288
v -0.099863 0.032447 -0.251288
v -0.061719 0.084949 -0.251288
v 0.000000 0.105000 -0.251288
v 0.052830 0.072713 -0.225060
v 0.085481 0.027774 -0.225060
v 0.085481 -0.027776 -0.225060
v 0.052830 -0.072715 -0.225060
v 0.000000 -0.089881 -0.225060
v -0.052830 -0.072715 -0.225060
v -0.085481 -0.027776 -0.225060
v -0.085481 0.027774 -0.225060
v -0.052830 0.072713 -0.225060
v 0.000000 0.089879 -0.225060
v 0.061719 0.084949 -0.231020
v 0.099863 0.032447 -0.231020
v 0.099863 -0.032449 -0.231020
v 0.061719 -0.084950 -0.231020
v 0.000000 -0.105002 -0.231020
v -0.061719 -0.084950 -0.231020
v -0.099863 -0.032449 -0.231020
v -0.099863 0.032447 -0.231020
v -0.061719 0.084949 -0.231020
v 0.000000 0.105000 -0.231020
vt 0.426888 0.424184
vt 0.426797 0.422340
vt 0.432460 0.421943
vt 0.432591 0.423766
vt 0.392703 0.419535
vt 0.398090 0.420472
vt 0.397968 0.422024
vt 0.391947 0.421029
vt 0.409461 0.417459
vt 0.409411 0.420740
vt 0.403741 0.420822
vt 0.403968 0.417304
vt 0.443138 0.377180
vt 0.444877 0.371829
vt 0.461347 0.377180
vt 0.455056 0.385839
vt 0.421073 0.424150
vt 0.421020 0.422250
vt 0.437957 0.421645
vt 0.438094 0.423454
vt 0.409319 0.424137
vt 0.409342 0.422263
vt 0.415220 0.422505
vt 0.415250 0.424389
vt 0.397841 0.423948
vt 0.403706 0.422142
vt 0.403689 0.424009
vt 0.391633 0.423101
vt 0.443571 0.421380
vt 0.443804 0.423121
vt 0.413272 0.366447
vt 0.412692 0.364249
vt 0.417689 0.364836
vt 0.431833 0.386219
vt 0.437368 0.386178
vt 0.437726 0.417013
vt 0.432359 0.417179
vt 0.435664 0.377886
vt 0.427101 0.369606
vt 0.429300 0.366020
vt 0.439715 0.372823
vt 0.420929 0.367998
vt 0.419419 0.368969
vt 0.444877 0.382532
vt 0.459609 0.382532
vt 0.443173 0.416479
vt 0.448627 0.416214
vt 0.448527 0.419127
vt 0.443403 0.419872
vt 0.415226 0.417273
vt 0.415227 0.420848
vt 0.398404 0.386094
vt 0.398317 0.416880
vt 0.392684 0.416541
vt 0.393019 0.386041
vt 0.421002 0.420878
vt 0.420957 0.417468
vt 0.426667 0.417152
vt 0.426751 0.420716
vt 0.449429 0.368521
vt 0.455056 0.368521
vt 0.422245 0.361574
vt 0.422692 0.364248
vt 0.432394 0.420646
vt 0.449123 0.420306
vt 0.449451 0.422070
vt 0.408307 0.369579
vt 0.406033 0.365953
vt 0.422107 0.366443
vt 0.430773 0.360893
vt 0.411030 0.372227
vt 0.414453 0.368011
vt 0.415971 0.368987
vt 0.414253 0.373936
vt 0.411276 0.384899
vt 0.405091 0.382497
vt 0.430580 0.382078
vt 0.424317 0.372174
vt 0.421110 0.373738
vt 0.424482 0.384972
vt 0.417784 0.385839
vt 0.417733 0.374356
vt 0.417698 0.369276
vt 0.437905 0.420178
vt 0.426285 0.386244
vt 0.420719 0.386250
vt 0.415148 0.386237
vt 0.409563 0.386207
vt 0.442895 0.386106
vt 0.448223 0.386041
vt 0.403985 0.386153
vt 0.459609 0.371829
vt 0.404687 0.360893
vt 0.413142 0.361590
vt 0.449429 0.385839
vt 0.442937 0.367306
vt 0.399569 0.378486
vt 0.395211 0.373298
vt 0.391633 0.367334
vn 0.4498 0.6191 -0.6437
vn 0.5033 0.6928 0.5164
vn 0.8144 0.2646 0.5164
vn 0.7278 0.2365 -0.6437
vn 0.0000 -0.8987 0.4386
vn -0.5282 -0.7270 0.4386
vn -0.5033 -0.6928 0.5164
vn 0.0000 -0.8563 0.5164
vn -0.9320 0.3028 -0.1993
vn -0.8547 0.2777 0.4386
vn -0.8547 -0.2777 0.4386
vn -0.9320 -0.3028 -0.1993
vn 0.0000 -0.7653 -0.6437
vn -0.4498 -0.6191 -0.6437
vn 0.0000 0.7653 -0.6437
vn 0.0000 0.8563 0.5164
vn 0.8144 -0.2646 0.5164
vn 0.7278 -0.2365 -0.6437
vn -0.7278 0.2365 -0.6437
vn -0.8144 0.2646 0.5164
vn -0.5033 0.6928 0.5164
vn -0.4498 0.6191 -0.6437
vn -0.8144 -0.2646 0.5164
vn -0.7278 -0.2365 -0.6437
vn 0.5033 -0.6928 0.5164
vn 0.4498 -0.6191 -0.6437
vn -0.6678 -0.2170 0.7120
vn -0.4127 -0.5681 0.7120
vn 0.0000 0.0000 1.0000
vn 0.9486 0.3082 0.0710
vn 0.9486 -0.3082 0.0710
vn 0.9320 -0.3028 -0.1993
vn 0.9320 0.3028 -0.1993
vn 0.9020 -0.2930 0.3171
vn 0.5575 -0.7673 0.3171
vn 0.5863 -0.8070 0.0710
vn 0.6678 0.2170 0.7120
vn 0.4127 0.5681 0.7120
vn 0.5760 -0.7928 -0.1993
vn 0.0000 -0.9799 -0.1993
vn 0.5282 -0.7270 0.4386
vn -0.5760 0.7928 -0.1993
vn -0.5282 0.7270 0.4386
vn -0.5863 -0.8070 0.0710
vn -0.5760 -0.7928 -0.1993
vn 0.0000 -0.9975 0.0710
vn 0.0000 0.8987 0.4386
vn 0.0000 0.9799 -0.1993
vn 0.5760 0.7928 -0.1993
vn 0.5282 0.7270 0.4386
vn 0.0000 -0.7022 0.7120
vn 0.4127 -0.5681 0.7120
vn 0.8547 0.2777 0.4386
vn -0.9020 -0.2930 0.3171
vn -0.5575 -0.7673 0.3171
vn 0.6678 -0.2170 0.7120
vn 0.0000 -0.9484 0.3171
vn -0.9020 0.2930 0.3171
vn -0.6678 0.2170 0.7120
vn -0.4127 0.5681 0.7120
vn -0.5575 0.7673 0.3171
vn -0.5863 0.8070 0.0710
vn -0.9486 0.3082 0.0710
vn 0.9020 0.2930 0.3171
vn 0.5575 0.7673 0.3171
vn 0.5863 0.8070 0.0710
vn 0.0000 0.9975 0.0710
vn 0.0000 0.9484 0.3171
vn 0.0000 0.7022 0.7120
vn 0.8547 -0.2777 0.4386
vn -0.9486 -0.3082 0.0710
usemtl base
s 1
f 42/1/1 62/2/2 63/3/3 43/4/4
f 56/5/5 57/6/6 67/7/7 66/8/8
f 35/9/9 59/10/10 58/11/11 32/12/12
f 46/13/13 47/14/14 51/15/15 43/16/4
f 51/17/15 71/18/16 62/2/2 42/1/1
f 43/4/4 63/3/3 64/19/17 44/20/18
f 49/21/19 69/22/20 70/23/21 50/24/22
f 50/24/22 70/23/21 71/18/16 51/17/15
f 47/25/14 67/7/7 68/26/23 48/27/24
f 46/28/13 66/8/8 67/7/7 47/25/14
f 48/27/24 68/26/23 69/22/20 49/21/19
f 44/20/18 64/19/17 65/29/25 45/30/26
f 24/31/27 21/32/28 31/33/29
f 18/34/30 17/35/31 39/36/32 38/37/33
f 17/38/31 9/39/34 5/40/35 12/41/36
f 27/42/37 28/43/38 31/33/29
f 57/6/6 58/11/11 68/26/23 67/7/7
f 45/44/26 46/13/13 43/16/4
f 51/15/15 42/45/1 43/16/4
f 33/46/39 36/47/40 56/48/5 55/49/41
f 35/9/9 40/50/42 60/51/43 59/10/10
f 15/52/44 37/53/45 36/54/40 16/55/46
f 61/56/47 41/57/48 34/58/49 52/59/50
f 47/14/14 48/60/24 49/61/19
f 25/62/51 26/63/52 31/33/29
f 53/64/53 63/3/3 62/2/2 52/59/50
f 45/30/26 65/29/25 66/65/8 46/66/13
f 41/57/48 61/56/47 60/51/43 40/50/42
f 7/67/54 10/68/55 21/32/28 24/31/27
f 22/69/56 27/42/37 31/33/29
f 6/70/57 5/40/35 26/63/52 25/62/51
f 1/71/58 30/72/59 29/73/60 2/74/61
f 20/75/62 14/76/63 1/71/58 2/74/61
f 18/77/30 4/78/64 9/39/34 17/38/31
f 26/63/52 22/69/56 31/33/29
f 3/79/65 13/80/66 19/81/67 8/82/68
f 23/83/69 29/73/60 31/33/29
f 65/29/25 55/49/41 56/48/5 66/65/8
f 55/49/41 65/29/25 64/19/17 54/84/70
f 57/6/6 37/53/45 32/12/12 58/11/11
f 56/5/5 36/54/40 37/53/45 57/6/6
f 52/59/50 34/58/49 38/37/33 53/64/53
f 39/36/32 33/46/39 55/49/41 54/84/70
f 18/34/30 38/37/33 34/58/49 13/85/66
f 39/36/32 54/84/70 53/64/53 38/37/33
f 13/85/66 34/58/49 41/57/48 19/86/67
f 20/87/62 40/50/42 35/9/9 14/88/63
f 12/89/36 16/90/46 36/47/40 33/46/39
f 11/91/71 14/88/63 35/9/9 32/12/12
f 49/61/19 51/15/15 47/14/14
f 59/10/10 69/22/20 68/26/23 58/11/11
f 30/72/59 24/31/27 31/33/29
f 70/23/21 60/51/43 61/56/47 71/18/16
f 69/22/20 59/10/10 60/51/43 70/23/21
f 17/35/31 12/89/36 33/46/39 39/36/32
f 20/87/62 19/86/67 41/57/48 40/50/42
f 15/52/44 11/91/71 32/12/12 37/53/45
f 49/61/19 50/92/22 51/15/15
f 6/93/57 25/94/51 21/32/28 10/68/55
f 8/82/68 23/83/69 28/43/38 3/79/65
f 9/39/34 22/69/56 26/63/52 5/40/35
f 8/82/68 2/74/61 29/73/60 23/83/69
f 4/78/64 3/79/65 28/43/38 27/42/37
f 43/16/4 44/95/18 45/44/26
f 4/78/64 27/42/37 22/69/56 9/39/34
f 12/41/36 5/40/35 6/70/57 16/96/46
f 7/67/54 11/97/71 15/98/44 10/68/55
f 16/99/46 6/93/57 10/68/55 15/98/44
f 8/82/68 19/81/67 20/75/62 2/74/61
f 18/77/30 13/80/66 3/79/65 4/78/64
f 11/97/71 7/67/54 1/71/58 14/76/63
f 24/31/27 30/72/59 1/71/58 7/67/54
f 61/56/47 52/59/50 62/2/2 71/18/16
f 54/84/70 64/19/17 63/3/3 53/64/53
f 29/73/60 30/72/59 31/33/29
f 21/32/28 25/94/51 31/33/29
f 28/43/38 23/83/69 31/33/29
